<?xml version="1.0" encoding="UTF-8"?><svg xmlns="http://www.w3.org/2000/svg" fill="#fff" viewBox="0 0 112 128"><title>List</title><g id="Layer_2" data-name="Layer 2"><path d="M112 24v96a8 8 0 0 1-8 8H8a8 8 0 0 1-8-8V24a8 8 0 0 1 8-8h8V8a8 8 0 0 1 16 0v8h16V8a8 8 0 0 1 16 0v8h16V8a8 8 0 0 1 16 0v8h8a8 8 0 0 1 8 8zM96 48H16v8h80zm0 24H16v8h80zm0 24H16v8h80z" id="Icons"/></g><metadata><rdf:RDF xmlns:rdf="http://www.w3.org/1999/02/22-rdf-syntax-ns#" xmlns:rdfs="http://www.w3.org/2000/01/rdf-schema#" xmlns:dc="http://purl.org/dc/elements/1.1/"><rdf:Description about="https://iconscout.com/legal#licenses" dc:title="list" dc:description="list" dc:publisher="Iconscout" dc:date="2017-09-14" dc:format="image/svg+xml" dc:language="en"><dc:creator><rdf:Bag><rdf:li>Brent Jackson</rdf:li></rdf:Bag></dc:creator></rdf:Description></rdf:RDF></metadata></svg>